<svg version="1" xmlns="http://www.w3.org/2000/svg" width="1000" height="1000"><path fill="#F8EB32" d="M967 680c0 157-128 284-285 284H323A284 284 0 0 1 39 680V321C39 163 166 36 323 36h359c157 0 285 127 285 285v359z"/><path fill="#FFF" d="M408 844c0-1 18-102-12-165-20-40-43-48-78-60-18-6-39-13-62-25-40-22-65-60-88-96h-1c-2 2-6 3-10 3-12 0-19-12-24-32l-5-1c-15-3-26-13-33-29-8-21-5-50 7-68a112 112 0 0 1 87-44c19 0 35 7 50 13 8 3 15 7 22 8h6l17-1 20-2 14 1 24 3 9-1 14-4c8-2 17-5 26-6l10-1c6 0 22 6 26 4s8-16 11-19a176 176 0 0 1 119-45 332 332 0 0 1 268 99c11 13 32 36 25 55-2 5-6 9-5 15 2 7 10 10 13 16 5 8 7 20 8 29 3 18 0 36-8 52l-1 4c-7 13-9 16-6 29l8 26c4 9 7 19 9 29l2 7c12 42 14 52 5 59-3 2-62 45-199 62a595 595 0 0 0-246 99l-29 22 7-36z"/><path fill="#FFF" d="M425 902c-6 0-11-1-17-3l-8-3-4-2a37 37 0 0 1-20 2c-11-2-19-8-24-18l-4-13c-6-3-14-10-18-24-3-9-2-17-2-23v-4-3c-1-9-1-20 10-33-1-4 0-8 1-11-1-9 0-22 17-35l3-3v-1c11-27 39-33 60-36 12-16 33-18 47-18h5a441 441 0 0 1 44 3l8-1 16-4a141 141 0 0 1 29-8h1c22-5 42-9 60-19l16-7c3-9 9-16 19-21l5-2 7-9c8-6 18-10 32-10l7 1c6-6 16-12 33-12l16 1h2a50 50 0 0 0 9 1c1-5 5-11 11-17 8-9 19-13 30-13 7 0 15 2 20 6a35 35 0 0 1 33 26c8 7 14 16 17 25 6 15 1 27-2 35v1c9 20-1 36-5 43l1 8c0 4 0 13-6 22-5 9-12 16-21 20l-1 2c-4 6-12 15-28 20a35 35 0 0 1-29 14l-16-2c-9 14-26 23-46 23l-16-2-4-1-7 2c-3 2-10 5-18 5h-3l-11-3-22 9-1 1-4 3c-4 4-9 8-16 11-8 4-16 5-21 5h-2c-16 2-29 6-38 11-9 6-19 10-28 14a180 180 0 0 0-28 14c-12 8-25 16-43 20-3 0-7 2-11 4-10 4-21 9-35 9zm453-365c-5 0-11-1-16-4l-6 1h-1a32 32 0 0 1-32-35c-3-5-6-10-6-16-8-9-14-19-20-28l-10-14c-3-5-9-10-16-15l-13-11c-4 3-9 4-15 4l-9-1c-9-2-16-7-20-12h-4c-6 0-11-1-16-4l-4 1h-1c-7 0-13-3-19-7-12-8-15-18-17-26l-1-1c-20-5-42-11-71-16a283 283 0 0 0-73-6c-14 1-21 5-27 15-4 5-14 21-34 21a33 33 0 0 1-21-7l-13 2c-4 0-8 0-12-2-15-4-24-14-30-22a46 46 0 0 1-23-19c-6-2-11-5-15-11-7-9-8-20-4-34 5-14 18-26 39-41l11-15c-2-9 1-22 16-34 10-7 22-11 36-12 3-7 9-13 17-17 6-2 13-4 20-4h1a232 232 0 0 1 64 13l38-32a384 384 0 0 1 192-77c16 0 31 3 43 8 43 19 71 70 93 119a34 34 0 0 1 6 0c9 1 17 7 21 15l7 4c5 3 20 14 19 36l5 12v2a36 36 0 0 1-2 29c0 7-1 17-8 25l-11 8-5 5 10 13c12 18 18 40 18 61 3 13 0 24-1 32l-1 4v15c-3 17-11 25-18 30l-2 7c-6 11-15 19-26 21l-1 1c-3 5-13 19-31 19h-1z"/><path fill="#3E295E" d="M828 415c-4 15-89 3-189-27s-177-66-173-81c5-15 89-3 189 27s178 66 173 81z"/><path fill="#3E295E" d="M478 310l-10 5c-17 10-26 28-36 44-13-6-25-10-39-7-13 2-26 7-38 10-13 3-27 1-40-2-19-3-37 5-56 2-21-3-44-22-74-21-25 2-57 16-71 38-14 21-14 68 17 75 14 3 24-1 32 12 30 42 54 90 100 115 68 36 113 24 145 92 33 68 14 174 14 174s117-86 252-103c135-16 192-58 192-58 3-3-11-47-11-51-5-19-13-37-18-56-4-19 0-25 8-42 15-28 7-59-8-86-14-24-35-45-62-55-46-18-62-21-62-21s-8-54-98-65c-33-4-67-11-100-8-13 1-26 3-37 8z"/><path fill="#3E295E" d="M142 447s8 40 15 40c8 0 12-40 12-40h-27z"/><path fill="#F8EB32" d="M616 667c41-18 82-36 120-58 30-17 65-39 81-70 33-64-41-116-96-126-9-2-79-11-82 5 3-15 20-23 28-35 14-19-5-22-20-28-25-11-52-20-80-20-28-1-52 3-74 24-4 4-9 9-10 14-2 16 29 21 38 15l16-8c16-8 33-13 51-15 15-2 31-3 46 2l12 5 3 3h-25s-15 24-50 34-82-10-82-10-35-17-66-13-38 0-38 0v15s-15-10-32-15c-18-4-43-16-74-11s-38 1-66-11c-29-13-60-9-78 22-18 32 5 52 5 52l26 1 17-1c1-11 7-34 19-40 15-8 8 18 10 31l3 15c21 8 41 20 69 16 34-5 70-28 103-10h1c3-7 11-22 19-24 10-3 1 14-1 22l-2 11 11 6c2-8 6-21 12-24 10-5 4 14 4 23v9c17 7 33 11 50 8 31-5 36-18 83 1 15 6 29 19 44 21 9 1 36-1 35-15 1 6 6 9 2 16-3 6-9 9-14 11-17 6-30-4-46-10s-35-17-53-19c-23-2-53 13-83 8s-55-41-96-36c-42 5-57 25-93 15l-15-5-1 4c-1 10 4 30-8 24-10-5-13-28-15-38a98 98 0 0 0-51-11c10 17 36 58 68 87 40 38 79 39 79 39l-24-19c-12-9-28-37-28-37s28 25 68 46l84 42-22-3c-15-3-43-14-43-14s38 34 77 59 109 51 109 51 15-5 75-31zM184 384c-13 4-25 3-26-2-2-5 7-12 20-16s25-3 26 2c2 5-7 12-20 16z"/><path fill="#FFF" d="M545 389s14 11 33 7c18-4 32-18 32-18s-11-2-24-1l-3 7c-2 5-7 7-7 7l-2-8-1-4c-16 3-28 10-28 10zM818 581s-33 30-110 66c-83 37-170 67-254 103l-5 45s63-37 154-57c91-21 153-33 184-40 30-6 53-20 53-20l-22-97z"/><path fill="#449A46" d="M736 609c30-17 65-39 81-70 33-64-41-116-96-126-9-2-79-11-82 5 3-15 20-23 28-35 14-19-5-22-20-28-25-11-52-20-80-20-28-1-52 3-74 24-4 4-9 9-10 14-2 16 29 21 38 15l16-8c16-8 33-13 51-15 15-2 31-3 46 2l12 5 3 3h-25s-15 24-50 34-82-10-82-10-35-17-66-13-38 0-38 0v15s-15-10-32-15c-18-4-43-16-74-11s-38 1-66-11c-29-13-60-9-78 22-18 32 5 52 5 52l26 1 17-1c1-11 7-34 19-40 15-8 8 18 10 31l3 15c21 8 41 20 69 16 34-5 70-28 103-10h1c3-7 11-22 19-24 10-3 1 14-1 22l-2 11 11 6c2-8 6-21 12-24 10-5 4 14 4 23v9c17 7 33 11 50 8 31-5 36-18 83 1 15 6 29 19 44 21 8 1 18 0 25-3 10-5 4-12-6-11 3-6 9-9 15-9 21-2 28 27 35 42 11 22 9 47-3 68-34 65-136 108-136 108s15-5 75-31c41-18 82-36 120-58zM184 384c-13 4-25 3-26-2-2-5 7-12 20-16s25-3 26 2c2 5-7 12-20 16z"/><path fill="#3E295E" d="M600 680c-35-15-79-47-81-95-1-42 2-123 3-145 12-5 20-22 19-40 0-24-14-42-30-42s-29 20-28 43c0 23 14 42 30 42-2 22-6 106-4 145 3 45 48 97 112 107 64 9 183 6 183 6l10-7s-179 1-214-14zM491 401c0-16 8-29 18-30 11 0 20 13 20 29 1 16-7 29-18 29-10 0-19-12-20-28zM823 364h-24l-30-2c-83-6-107-9-114-12l-6-2c-82-36-97-44-101-47-8-5-20-17-28-30-14-19-18-33-14-44 5-12 17-21 28-29l8-7 38-31c46-35 122-72 178-74 16-1 31 2 42 7 48 21 77 90 94 132l9 20c4 10 9 22 3 31-3 5-9 8-15 8-9 1-18-4-33-12h-2l-1-1 5 9 25 62a14 14 0 0 1-12 19l-50 3zm2-129v3c2 11 5 12 11 16h1l-12-19z"/><path fill="#EB2724" d="M556 289c-11-7-41-43-36-57 4-11 24-22 32-30l37-31c53-40 155-87 205-65 51 23 81 115 95 145 15 30-8 18-27 8-16-8-25-29-34-44-4-6-10-11-12-19-3-12-4-23-8-35-2-5-4-13-9-16-8-4-24 2-32 5-6 2-23 11-9 18 8 5 22-8 29-1 6 8-5 7-6 12-2 5 8 6 2 13-6 8-23 4-32 3-10 0-34 2-42 9 10 7 28 3 40 3 7 1 16 1 22 5 4 2 10 5 8 9-2 5-24 7-16 14-9 7-21-7-26 8-2 5-2 12 1 16 2 4 7 5 8 10 4 12-5 20-14 25-14 9-9 23-17 37-5 9-17 16-27 14-5 0-7-3-11-5-5-2-11-1-16-3-9-4-96-42-105-48z"/><path fill="#3E295E" d="M887 334a58 58 0 0 1-32-8c-6-3-14-8-19-15-3-6-4-11-4-15-4-2-6-6-8-10-2-6 0-12 2-16l-1-1c-2-3-7-13 4-24 4-4 8-5 10-6l2-2 3-2 7-6 10-4 4-2 1-1c2-4 7-10 17-11a21 21 0 0 1 11 3 20 20 0 0 1 9-1c6 1 10 5 12 11 3 1 6 2 9 5 5 3 15 10 13 25v2c3 5 4 10 5 13l1 2c1 3 3 10 0 16l-3 4c1 6 1 14-4 20-2 3-5 4-9 5-4 7-11 11-19 14l-21 4z"/><path fill="#FFF" d="M875 233c-5 4-11 4-16 8l-15 10c-3 3-8 7-5 12 2 3 9 3 12 3-3 4-6 7-8 12 9 4 17-1 22-9-2 9 8 9 13 5 0 4-4 10-2 14 2 5 6 1 9 4 3 2 2 8 7 9 4 1 7-2 7-5-1 5 8 10 11 10 9 2 6-3 11-8 2 1 2 3 2 5 7 0 2-15 4-18l3-3c1-2 0-6-1-8l-4-11-3-3 1-7c1-7-2-9-7-13s-11-5-17-5c1-3 3-5 2-8-6-1-7 6-13 6 0-4 1-7-3-8-5-1-7 4-10 8z"/><path fill="#3E295E" d="M879 522c-5 0-10-2-14-6l-3 2-6 1c-6 0-11-2-14-6-6-7-4-16-3-20-5-3-8-8-7-13v-3c-9-9-16-20-22-30l-11-15-18-17-13-11-8-8-1-2c-4 9-11 11-16 11l-6-1c-8-2-13-8-17-15a18 18 0 0 1-9 2c-7 0-11-2-14-5l-7 2c-4 0-8-1-12-4-10-7-10-19-11-24v-2l-6-2-5-1c-20-6-42-11-72-17a295 295 0 0 0-78-5c-18 1-29 7-38 21-3 4-9 15-21 15-4 0-8-2-11-4l-6-6c-5 2-10 4-17 4l-8-1c-12-3-20-13-25-21-6-1-11-5-15-8-2-2-5-5-6-11h-1c-5 0-10-2-13-7-6-7-3-17-2-20 3-10 12-20 36-36 4-7 10-14 16-21l-1-3c-4-12 7-20 10-23 9-6 20-10 33-10h5v-1c0-5 3-11 13-16 3-2 8-3 14-3 20 0 56 12 65 15l48 7c13 3 27 5 40 6 29 4 59 8 88 17 43 12 82 35 119 57l17 10 17 10c24 13 49 26 66 51 11 17 16 36 15 55 3 10 1 19-1 27l-1 5v15c-2 11-6 18-14 21h-1l-4 11c-4 9-10 14-18 14h-4l-3 7c-2 3-9 12-19 12z"/><path fill="#FFF" d="M917 430l2-5c6 0 7 0 10-4 5-8 0-18-1-26-1-11-5-22-12-31-19-28-50-41-78-57l-63-37c-10-5-20-11-31-15-6-2-17-12-22-7-2 2-1 5-3 6-3 1-7-2-8-3-6-5-8-16-18-13-4 1-3 0-3 4v6c-8 1-13-5-19-10-5-5-9-8-17-8-25-2-50-7-74-11-13-2-28-6-41-6-11 1-19 9-29 12-2-5 2-6 4-9 8-12-14-14-21-15-9-3-23-7-32-3-14 7 14 9 7 17l-10 3c-12 0-31-4-44 6-14 10 1 9 10 10-14 9-26 21-34 35-16 11-30 23-33 30-3 12 4 7 10 5 4-1 7-1 11-4 3-3 7-7 12-7 0 6-6 13 2 17 7 3 6-3 10-7 0 7 3 14 12 11 5-1 5-7 9-10-1 11 12 14 20 10 7-3 9-9 14-15 3-3 13-8 17-7 5 1 1 9 7 7 4-1 8-5 11-7 2 0 12-4 14-1s-8 4-2 7c6 2 14-3 19-4 6-1 5 1 5 5l7-1h21l36 2 22 1c-3 1-10 5-8 10s6 3 10 3c1-1 4-2 6-1s1 2 2 4c3 5 13 5 19 4 3 0 5-2 8-3 4 0 5 1 6 5 5 9 16 15 21 24 4 7 1 20 9 25 8 6 7-17 14-11 3 3 2 16 10 15 4 0 3-6 5-8 8-9 17 20 24 21 10 2 6-14 12-19 8-6 17 3 24 7 5 2 14 6 19 6 5-1 7-3 12-3 11-1 9 10 16 16 3 4 10 10 15 6 2-2 1-11 1-14 11 6 7 17 15 24 7 5 13 1 13-7 4 0 4 3 7 6 3 2 11 5 15 3 6-2 6-7 3-12 11 3-1 26-1 33 6 1 9-4 11-9 3 5 11 8 15 4z"/><path fill="#3E295E" d="M425 887l-12-2-7-3-11-3h-2c-2 2-6 3-11 3h-3c-14-3-16-18-17-23v-2l-1-2h-1c-5-2-12-6-16-18-2-7-1-13-1-18v-6-4c-1-7-1-14 8-24l2-2 1-1-2-4a17 17 0 0 1 2-10c-2-5-2-14 11-25a443 443 0 0 0 7-5l1-4c9-22 35-26 54-29h1l3-4c7-11 24-12 35-12h5l21 1 23 1h9c6 0 13-3 20-5a1706 1706 0 0 1 28-8c23-5 44-9 64-20a149 149 0 0 1 22-10v-3c1-9 10-13 13-15l8-3c2-5 6-8 7-10 5-4 12-6 22-6h7l6 2a20 20 0 0 1 4-5c5-6 13-9 23-9l14 2h2l9 1c5 0 9-1 12-4l2-4c2-4 4-9 9-14 6-5 13-9 20-9 5 0 11 3 15 7h5c6 0 12 3 16 8 3 4 4 8 4 11 8 6 14 14 17 22 3 11-1 20-3 26l-1 1-1 3v1l3 5c5 14-1 25-5 31l-3 6v1l2 8c0 5 0 9-4 14v1c-5 10-13 13-20 15l-2 6c-5 9-15 13-25 15l-2 5c-3 3-8 7-17 7l-13-2h-2a30 30 0 0 0-10 0c-5 14-19 23-37 23l-12-2-8-1-12 3-2 1c-2 1-6 3-11 3h-2c-5 0-8-2-10-4-8 1-24 9-31 12v1l-8 5c-3 3-7 7-12 9-6 3-11 3-16 4h-3c-18 2-33 7-43 13l-27 13a627 627 0 0 0-30 15c-11 7-23 14-38 17l-14 5c-8 4-18 8-29 8z"/><path fill="#FFF" d="M734 618c-1 4 0 8-3 10-4 3-13-3-18-3-5-1-14-1-18 2-8 8 4 6 3 13-7 1-15-1-21 2-13 6 2 7-1 14-1 2-15 5-18 6l-15 8c-11 6-23 10-35 12-11 2-23 4-30 13-3 4 0 6-8 8-6 2-13-2-19 1 8 7-2 10-8 10-8-1-16-2-23-5-6-2-74-14-70 3 1 5 7 3 6 8-1 8-10 2-14 1-7-3-12-3-20-2-5 1-23 3-26 8-3 6 5 11-2 15l-9 3-12 9c-6 5-11 13 1 11-3 3-13 11-6 14 1 8-2 10-7 15-9 9-11 25-6 36 4 9 11 9 16 1 2-3 3-12 6-13h7c1 4-2 12 4 13 4 0 8-7 14-8 6 0 5 2 2 6-4 6-4 8-2 13 1 4 1 12 8 9 4-2 8-12 10-6s-3 16 7 9c5-3 9-9 15-12 3 8 4 10 12 7 9-2 14-6 21-12 4-4 8-4 14-4-2-12 28-15 36-16 1-4 4-7 7-10 4-2 8 0 11-1 5-3 6-12 14-12 5 0 10 9 15 4v-11c2-4 5-6 10-8 2-1 8-3 10-1 2 1 1 5 3 6 3 2 15 2 19-3 4-6-3-14 5-19 7-5 15-2 20 2 6-18 18-1 30-7 5-2 0-9 5-12 4-3 13 5 19 3 9-3 0-10 5-15 4-3 17 3 22 4 7 0 22 2 27-3 4-3 4-9 9-11s12 4 19 1c5-3-3-9 0-14s24-4 20-10c-2-3-11-6-3-9 4-2 10 1 15 1 5-1 11-3 13-9 2-9-11-15-17-18 3-3 10-1 14-3 3-1 6-3 8-6 3-6 1-13-5-16s-11 0-17 2c2-5 13-13 9-19-3-3-10-1-13 0-7 1-21 13-28 8-4-3-2-10-4-14-4-6-15-7-21-6-4 1-8 2-11 5l-1 2z"/></svg>